<?xml version="1.0" encoding="UTF-8"?>
<svg version="1.1" xmlns="http://www.w3.org/2000/svg" width="820" height="200">
<path d="M0 0 C2.36328125 0.31640625 2.36328125 0.31640625 3.36328125 1.31640625 C3.07320843 9.93437623 0.10732638 17.69863272 -2.69921875 25.75390625 C-3.40859831 27.81180456 -4.11533281 29.87056111 -4.81895447 31.93043518 C-5.45237279 33.78147963 -6.09329833 35.6299501 -6.73461914 37.47827148 C-7.73769076 40.1377367 -7.73769076 40.1377367 -7.63671875 42.31640625 C-6.82267578 41.59324219 -6.82267578 41.59324219 -5.9921875 40.85546875 C-5.27675781 40.22382812 -4.56132812 39.5921875 -3.82421875 38.94140625 C-3.11652344 38.31492188 -2.40882813 37.6884375 -1.6796875 37.04296875 C0.36328125 35.31640625 0.36328125 35.31640625 3.36328125 33.31640625 C5.48828125 33.50390625 5.48828125 33.50390625 7.36328125 34.31640625 C7.69328125 35.30640625 8.02328125 36.29640625 8.36328125 37.31640625 C8.89900757 36.41547241 8.89900757 36.41547241 9.44555664 35.49633789 C11.08190557 32.77541679 12.75306295 30.0776073 14.42578125 27.37890625 C14.98716797 26.43337891 15.54855469 25.48785156 16.12695312 24.51367188 C20.46513942 17.59736344 20.46513942 17.59736344 25.171875 16.125 C28.36328125 16.31640625 28.36328125 16.31640625 30.36328125 17.31640625 C29.68471074 23.0842556 26.39284052 26.88451068 23.07421875 31.5 C22.69007813 32.03560547 22.3059375 32.57121094 21.91015625 33.12304688 C21.12808089 34.21143508 20.33897081 35.29480225 19.54296875 36.37304688 C16.74931942 40.30397574 15.45008039 43.6945884 14.36328125 48.31640625 C16.5926953 48.00567601 18.82180337 47.69275 21.05078125 47.37890625 C22.29214844 47.20488281 23.53351563 47.03085938 24.8125 46.8515625 C27.68802673 46.41817728 30.51972938 45.91991343 33.36328125 45.31640625 C33.67578125 47.56640625 33.67578125 47.56640625 33.36328125 50.31640625 C27.99816756 55.67149169 21.63698587 55.9146366 14.36328125 56.31640625 C10.65549734 56.02223496 8.23747545 55.10600102 5.42578125 52.56640625 C4.05222621 49.65770145 4.08670338 47.49705175 4.36328125 44.31640625 C4.85828125 43.32640625 4.85828125 43.32640625 5.36328125 42.31640625 C3.12973635 43.87293619 0.90154207 45.43631246 -1.32421875 47.00390625 C-2.26297852 47.65649414 -2.26297852 47.65649414 -3.22070312 48.32226562 C-10.34164734 53.35539374 -14.44922 58.19656844 -18.01171875 66.12890625 C-18.3989209 66.96623291 -18.78612305 67.80355957 -19.18505859 68.66625977 C-21.33029353 73.33252109 -23.38797161 78.03298031 -25.40600586 82.75537109 C-32.38032028 99.04402669 -41.87475304 112.70094572 -54.19921875 125.37890625 C-54.79992187 126.01030518 -55.400625 126.6417041 -56.01953125 127.29223633 C-62.32551976 133.60077856 -69.65157902 137.16411575 -78.63671875 137.31640625 C-81.13671875 136.37890625 -81.13671875 136.37890625 -82.63671875 134.31640625 C-84.90549394 118.71857681 -72.35380571 100.10656912 -64.13671875 87.69140625 C-57.07552142 78.29316961 -48.23281382 71.05447118 -39.00390625 63.9375 C-29.65387734 56.70430918 -20.55473197 48.8444067 -16.63671875 37.31640625 C-16.63671875 36.32640625 -16.63671875 35.33640625 -16.63671875 34.31640625 C-17.23097656 34.95707031 -17.82523437 35.59773438 -18.4375 36.2578125 C-25.16751885 43.28089593 -33.56868406 52.02756829 -43.88671875 52.44921875 C-45.12421875 52.44664063 -46.36171875 52.4440625 -47.63671875 52.44140625 C-48.87421875 52.44398437 -50.11171875 52.4465625 -51.38671875 52.44921875 C-54.63671875 52.31640625 -54.63671875 52.31640625 -57.63671875 51.31640625 C-59.5523835 52.07606641 -61.46796138 52.83594752 -63.3828125 53.59765625 C-67.15655945 54.80106949 -70.73643588 54.99374545 -74.63671875 54.31640625 C-78.31627995 52.12432724 -79.85812324 50.11287022 -81.63671875 46.31640625 C-82.43722656 47.14785156 -82.43722656 47.14785156 -83.25390625 47.99609375 C-88.54796814 53.14360721 -93.03746711 56.38283327 -100.63671875 56.31640625 C-103.76227459 55.14432281 -105.02618838 54.2784541 -106.796875 51.48828125 C-108.65618507 46.68001894 -106.41488336 41.27784737 -104.59375 36.6875 C-99.7419431 26.4029255 -92.99015141 19.55191662 -82.51171875 14.94140625 C-76.15198293 13.55885499 -71.2537099 14.02564519 -65.76171875 17.50390625 C-63.91186903 20.48421968 -64.9628404 22.97451975 -65.63671875 26.31640625 C-67.10154 29.67757718 -68.76335457 32.88204597 -70.45703125 36.1328125 C-71.79465809 39.74263329 -71.66025575 41.64783417 -70.63671875 45.31640625 C-70.30671875 45.64640625 -69.97671875 45.97640625 -69.63671875 46.31640625 C-67.94530219 46.22677563 -66.25712273 46.07062949 -64.57421875 45.87890625 C-63.65511719 45.77707031 -62.73601562 45.67523438 -61.7890625 45.5703125 C-61.07878906 45.48652344 -60.36851562 45.40273437 -59.63671875 45.31640625 C-59.19972656 43.90101562 -59.19972656 43.90101562 -58.75390625 42.45703125 C-51.44608466 19.34483557 -51.44608466 19.34483557 -43.63671875 12.31640625 C-40.44921875 11.81640625 -40.44921875 11.81640625 -37.63671875 12.31640625 C-36.64671875 13.30640625 -36.64671875 13.30640625 -35.63671875 14.31640625 C-35.78385857 19.8913707 -38.36878387 23.34649911 -41.51171875 27.69140625 C-45.15461946 32.7515738 -47.65025367 37.38332182 -49.63671875 43.31640625 C-40.81580019 41.72500342 -34.51210253 39.08097122 -27.63671875 33.31640625 C-26.96125 32.75308594 -26.28578125 32.18976563 -25.58984375 31.609375 C-18.10114997 24.73475411 -13.00851936 15.65509055 -7.62109375 7.125 C-7.028125 6.21878906 -6.43515625 5.31257813 -5.82421875 4.37890625 C-5.32277344 3.58613281 -4.82132812 2.79335938 -4.3046875 1.9765625 C-2.63671875 0.31640625 -2.63671875 0.31640625 0 0 Z M-92.2578125 30.84375 C-97.12964105 36.52514056 -97.87950741 40.03274657 -97.63671875 47.31640625 C-87.94923153 43.08665831 -81.20517874 38.00154142 -76.63671875 28.31640625 C-76.63671875 26.99640625 -76.63671875 25.67640625 -76.63671875 24.31640625 C-82.84726562 23.94464816 -87.76848452 26.6140458 -92.2578125 30.84375 Z M-36.82421875 72.31640625 C-37.4164624 72.82333008 -38.00870605 73.33025391 -38.61889648 73.85253906 C-43.06349924 77.71230958 -46.95793014 81.71598428 -50.63671875 86.31640625 C-51.53524986 87.3825301 -52.43511444 88.44753079 -53.3359375 89.51171875 C-58.98063495 96.26588489 -64.13103005 103.24108581 -68.82421875 110.69140625 C-69.29375977 111.41569824 -69.76330078 112.13999023 -70.24707031 112.88623047 C-73.4249315 118.08971116 -74.33043784 122.22682116 -74.63671875 128.31640625 C-67.61712623 128.17016474 -64.50335076 125.10802274 -59.63671875 120.31640625 C-58.99863281 119.75050781 -58.36054688 119.18460938 -57.703125 118.6015625 C-51.03338128 112.46861908 -46.38734228 104.9553782 -41.63671875 97.31640625 C-41.25950684 96.7145752 -40.88229492 96.11274414 -40.49365234 95.49267578 C-32.14652844 82.27503694 -32.14652844 82.27503694 -28.63671875 67.31640625 C-32.06785842 67.31640625 -34.31974172 70.16881107 -36.82421875 72.31640625 Z " fill="#000000" transform="translate(456.63671875,54.68359375)"/>
<path d="M0 0 C2.71282317 5.42564634 2.36375099 10.8548944 0.9375 16.67578125 C-3.04694396 27.82866681 -11.10908701 37.03196708 -20.4375 44.125 C-21.30761719 44.50527344 -22.17773438 44.88554688 -23.07421875 45.27734375 C-26.07627038 46.60163968 -27.51967448 47.42833923 -29.4375 50.125 C-32.24886551 63.17776844 -30.42853256 84.54443461 -23.4375 96.125 C-21.18608021 97.49284258 -21.18608021 97.49284258 -18.4375 98.125 C-16.5503125 98.681875 -16.5503125 98.681875 -14.625 99.25 C-13.573125 99.53875 -12.52125 99.8275 -11.4375 100.125 C-11.4375 101.115 -11.4375 102.105 -11.4375 103.125 C-16.01259141 105.4863375 -20.40121879 105.72128102 -25.4375 105.125 C-28.25 103.875 -28.25 103.875 -30.4375 102.125 C-31.13875 101.609375 -31.84 101.09375 -32.5625 100.5625 C-39.06952424 92.10336849 -38.12819635 79.88452588 -38.52148438 69.70019531 C-38.60746872 67.58593573 -38.70954072 65.47286537 -38.8125 63.359375 C-38.86148438 62.11381836 -38.91046875 60.86826172 -38.9609375 59.58496094 C-39.47837857 55.8282115 -40.41696421 53.32458066 -42.4375 50.125 C-43.4275 49.795 -44.4175 49.465 -45.4375 49.125 C-45.65148437 49.888125 -45.86546875 50.65125 -46.0859375 51.4375 C-47.96873283 56.57437511 -50.50849765 61.29357086 -53.0625 66.125 C-53.59721924 67.14287598 -54.13193848 68.16075195 -54.68286133 69.20947266 C-66.04497009 90.73247009 -66.04497009 90.73247009 -68.4375 93.125 C-71.375 93.3125 -71.375 93.3125 -74.4375 93.125 C-75.0975 92.465 -75.7575 91.805 -76.4375 91.125 C-76.14676951 85.0593048 -74.56716838 80.04821638 -72.1875 74.5 C-71.83671387 73.68080078 -71.48592773 72.86160156 -71.12451172 72.01757812 C-64.48658059 57.05329272 -55.37967681 43.35020209 -46.41033936 29.703125 C-45.65186579 28.54899721 -44.89577947 27.39329609 -44.14239502 26.23583984 C-27.94296287 1.43333487 -27.94296287 1.43333487 -13.875 -2.25 C-8.64631482 -3.17854237 -4.37212834 -3.36317564 0 0 Z M-15.125 5.5 C-26.03803774 11.62342673 -34.80311642 22.11354447 -39.5625 33.6875 C-40.40377397 36.9925049 -40.56354873 38.0639595 -39.4375 41.125 C-35.93449995 42.87650002 -32.16738918 41.93776301 -28.4375 41.125 C-18.42482913 35.73356184 -11.68698913 26.34920743 -8.1171875 15.7578125 C-7.24189767 12.367322 -7.12857028 9.60045936 -7.4375 6.125 C-10.84806207 4.03198398 -11.06642744 3.98663396 -15.125 5.5 Z " fill="#000000" transform="translate(356.4375,17.875)"/>
<path d="M0 0 C1.71875 1.19921875 1.71875 1.19921875 3 3 C3.99549082 9.04126289 3.17286598 14.46369622 0.734375 20.0078125 C-0.58101106 23.57614702 -0.70526453 27.22738595 -1 31 C3.95 30.67 8.9 30.34 14 30 C13 35 13 35 10.6875 37.25 C5.35441142 40.72270884 -0.79129436 40.78068044 -7 40 C-10.1875 38.0625 -10.1875 38.0625 -12 35 C-13.56438491 28.44010027 -11.06830794 23.39937696 -8.1796875 17.59765625 C-6.68801667 14.31301683 -6.23837113 11.57556702 -6 8 C-13.96663484 10.70865585 -17.88374955 15.44340788 -21.59765625 22.91796875 C-22.85363867 25.56245458 -24.07751443 28.22020916 -25.29882812 30.88085938 C-29.33944882 39.37701443 -29.33944882 39.37701443 -34 42 C-37.25 41.375 -37.25 41.375 -40 40 C-41.48609292 37.02781415 -41.39346496 35.3368855 -41 32 C-39.44533159 28.7737594 -37.48971131 25.8475629 -35.5 22.875 C-34.95335693 22.04057373 -34.40671387 21.20614746 -33.84350586 20.34643555 C-32.74564644 18.67308401 -31.64277169 17.00301116 -30.53466797 15.33642578 C-29.18121162 13.27588214 -27.87758429 11.19649574 -26.59765625 9.08984375 C-25.92605469 8.00832031 -25.25445312 6.92679687 -24.5625 5.8125 C-23.69818359 4.39904297 -23.69818359 4.39904297 -22.81640625 2.95703125 C-21 1 -21 1 -18.46484375 0.57421875 C-16 1 -16 1 -13 3 C-12.34 2.505 -11.68 2.01 -11 1.5 C-6.92599581 -0.5370021 -4.53276656 -0.43865483 0 0 Z " fill="#000000" transform="translate(532,69)"/>
<path d="M0 0 C6.15234375 0.5859375 6.15234375 0.5859375 8 1 C9.4783226 3.95664519 9.06032783 6.74229737 9 10 C4.58400927 11.31286211 4.58400927 11.31286211 2.25 10.0625 C0.30088738 6.84646417 0.30560885 3.72842792 0 0 Z " fill="#000000" transform="translate(495,33)"/>
</svg>
